<svg width="358" height="105" viewBox="0 0 358 105" fill="none" xmlns="http://www.w3.org/2000/svg">
<g filter="url(#filter0_d_39_85)">
<path fill-rule="evenodd" clip-rule="evenodd" d="M13 3.5C10.2386 3.5 8 5.73857 8 8.49999V68.1264C8 70.8878 10.2386 73.1264 13 73.1264H22.0303L33 91.5L43.9697 73.1264H345C347.761 73.1264 350 70.8878 350 68.1264V8.5C350 5.73858 347.761 3.5 345 3.5H13Z" fill="white"/>
</g>
<path d="M27.1094 14.625H29.0938L32.0156 22.9766L34.9375 14.625H36.9219L32.8125 26H31.2188L27.1094 14.625ZM26.0391 14.625H28.0156L28.375 22.7656V26H26.0391V14.625ZM36.0156 14.625H38V26H35.6562V22.7656L36.0156 14.625ZM39.5547 21.8594V21.6953C39.5547 21.0755 39.6432 20.5052 39.8203 19.9844C39.9974 19.4583 40.2552 19.0026 40.5938 18.6172C40.9323 18.2318 41.349 17.9323 41.8438 17.7188C42.3385 17.5 42.9062 17.3906 43.5469 17.3906C44.1875 17.3906 44.7578 17.5 45.2578 17.7188C45.7578 17.9323 46.1771 18.2318 46.5156 18.6172C46.8594 19.0026 47.1198 19.4583 47.2969 19.9844C47.474 20.5052 47.5625 21.0755 47.5625 21.6953V21.8594C47.5625 22.474 47.474 23.0443 47.2969 23.5703C47.1198 24.0911 46.8594 24.5469 46.5156 24.9375C46.1771 25.3229 45.7604 25.6224 45.2656 25.8359C44.7708 26.0495 44.2031 26.1562 43.5625 26.1562C42.9219 26.1562 42.3516 26.0495 41.8516 25.8359C41.3568 25.6224 40.9375 25.3229 40.5938 24.9375C40.2552 24.5469 39.9974 24.0911 39.8203 23.5703C39.6432 23.0443 39.5547 22.474 39.5547 21.8594ZM41.8047 21.6953V21.8594C41.8047 22.2135 41.8359 22.5443 41.8984 22.8516C41.9609 23.1589 42.0599 23.4297 42.1953 23.6641C42.3359 23.8932 42.5182 24.0729 42.7422 24.2031C42.9661 24.3333 43.2396 24.3984 43.5625 24.3984C43.875 24.3984 44.1432 24.3333 44.3672 24.2031C44.5911 24.0729 44.7708 23.8932 44.9062 23.6641C45.0417 23.4297 45.1406 23.1589 45.2031 22.8516C45.2708 22.5443 45.3047 22.2135 45.3047 21.8594V21.6953C45.3047 21.3516 45.2708 21.0286 45.2031 20.7266C45.1406 20.4193 45.0391 20.1484 44.8984 19.9141C44.763 19.6745 44.5833 19.487 44.3594 19.3516C44.1354 19.2161 43.8646 19.1484 43.5469 19.1484C43.2292 19.1484 42.9583 19.2161 42.7344 19.3516C42.5156 19.487 42.3359 19.6745 42.1953 19.9141C42.0599 20.1484 41.9609 20.4193 41.8984 20.7266C41.8359 21.0286 41.8047 21.3516 41.8047 21.6953ZM51.6953 24.3594L53.5703 17.5469H55.9219L53.0703 26H51.6484L51.6953 24.3594ZM50.4062 17.5469L52.2891 24.3672L52.3281 26H50.8984L48.0469 17.5469H50.4062ZM60.7109 26.1562C60.0547 26.1562 59.4661 26.0521 58.9453 25.8438C58.4245 25.6302 57.9818 25.3359 57.6172 24.9609C57.2578 24.5859 56.9818 24.151 56.7891 23.6562C56.5964 23.1562 56.5 22.625 56.5 22.0625V21.75C56.5 21.1094 56.5911 20.5234 56.7734 19.9922C56.9557 19.4609 57.2161 19 57.5547 18.6094C57.8984 18.2188 58.3151 17.9193 58.8047 17.7109C59.2943 17.4974 59.8464 17.3906 60.4609 17.3906C61.0599 17.3906 61.5911 17.4896 62.0547 17.6875C62.5182 17.8854 62.9062 18.1667 63.2188 18.5312C63.5365 18.8958 63.776 19.3333 63.9375 19.8438C64.099 20.349 64.1797 20.9115 64.1797 21.5312V22.4688H57.4609V20.9688H61.9688V20.7969C61.9688 20.4844 61.9115 20.2057 61.7969 19.9609C61.6875 19.7109 61.5208 19.513 61.2969 19.3672C61.0729 19.2214 60.7865 19.1484 60.4375 19.1484C60.1406 19.1484 59.8854 19.2135 59.6719 19.3438C59.4583 19.474 59.2839 19.6562 59.1484 19.8906C59.0182 20.125 58.9193 20.401 58.8516 20.7188C58.7891 21.0312 58.7578 21.375 58.7578 21.75V22.0625C58.7578 22.401 58.8047 22.7135 58.8984 23C58.9974 23.2865 59.1354 23.5339 59.3125 23.7422C59.4948 23.9505 59.7135 24.112 59.9688 24.2266C60.2292 24.3411 60.5234 24.3984 60.8516 24.3984C61.2578 24.3984 61.6354 24.3203 61.9844 24.1641C62.3385 24.0026 62.6432 23.7604 62.8984 23.4375L63.9922 24.625C63.8151 24.8802 63.5729 25.125 63.2656 25.3594C62.9635 25.5938 62.599 25.7865 62.1719 25.9375C61.7448 26.0833 61.2578 26.1562 60.7109 26.1562ZM73.8828 20.2344V22H69.4688V20.2344H73.8828ZM86.4766 22.2266H88.8125C88.7656 22.9922 88.5547 23.6719 88.1797 24.2656C87.8099 24.8594 87.2917 25.3229 86.625 25.6562C85.9635 25.9896 85.1667 26.1562 84.2344 26.1562C83.5052 26.1562 82.8516 26.0312 82.2734 25.7812C81.6953 25.526 81.2005 25.1615 80.7891 24.6875C80.3828 24.2135 80.0729 23.6406 79.8594 22.9688C79.6458 22.2969 79.5391 21.5443 79.5391 20.7109V19.9219C79.5391 19.0885 79.6484 18.3359 79.8672 17.6641C80.0911 16.987 80.4089 16.4115 80.8203 15.9375C81.237 15.4635 81.7344 15.099 82.3125 14.8438C82.8906 14.5885 83.5365 14.4609 84.25 14.4609C85.1979 14.4609 85.9974 14.6328 86.6484 14.9766C87.3047 15.3203 87.8125 15.7943 88.1719 16.3984C88.5365 17.0026 88.7552 17.6901 88.8281 18.4609H86.4844C86.4583 18.0026 86.3672 17.6146 86.2109 17.2969C86.0547 16.974 85.8177 16.7318 85.5 16.5703C85.1875 16.4036 84.7708 16.3203 84.25 16.3203C83.8594 16.3203 83.5182 16.3932 83.2266 16.5391C82.9349 16.6849 82.6901 16.9062 82.4922 17.2031C82.2943 17.5 82.1458 17.875 82.0469 18.3281C81.9531 18.776 81.9062 19.3021 81.9062 19.9062V20.7109C81.9062 21.2995 81.9505 21.8177 82.0391 22.2656C82.1276 22.7083 82.263 23.0833 82.4453 23.3906C82.6328 23.6927 82.8724 23.9219 83.1641 24.0781C83.4609 24.2292 83.8177 24.3047 84.2344 24.3047C84.724 24.3047 85.1276 24.2266 85.4453 24.0703C85.763 23.9141 86.0052 23.6823 86.1719 23.375C86.3438 23.0677 86.4453 22.6849 86.4766 22.2266ZM94.1016 26.1562C93.4453 26.1562 92.8568 26.0521 92.3359 25.8438C91.8151 25.6302 91.3724 25.3359 91.0078 24.9609C90.6484 24.5859 90.3724 24.151 90.1797 23.6562C89.987 23.1562 89.8906 22.625 89.8906 22.0625V21.75C89.8906 21.1094 89.9818 20.5234 90.1641 19.9922C90.3464 19.4609 90.6068 19 90.9453 18.6094C91.2891 18.2188 91.7057 17.9193 92.1953 17.7109C92.6849 17.4974 93.237 17.3906 93.8516 17.3906C94.4505 17.3906 94.9818 17.4896 95.4453 17.6875C95.9089 17.8854 96.2969 18.1667 96.6094 18.5312C96.9271 18.8958 97.1667 19.3333 97.3281 19.8438C97.4896 20.349 97.5703 20.9115 97.5703 21.5312V22.4688H90.8516V20.9688H95.3594V20.7969C95.3594 20.4844 95.3021 20.2057 95.1875 19.9609C95.0781 19.7109 94.9115 19.513 94.6875 19.3672C94.4635 19.2214 94.1771 19.1484 93.8281 19.1484C93.5312 19.1484 93.276 19.2135 93.0625 19.3438C92.849 19.474 92.6745 19.6562 92.5391 19.8906C92.4089 20.125 92.3099 20.401 92.2422 20.7188C92.1797 21.0312 92.1484 21.375 92.1484 21.75V22.0625C92.1484 22.401 92.1953 22.7135 92.2891 23C92.388 23.2865 92.526 23.5339 92.7031 23.7422C92.8854 23.9505 93.1042 24.112 93.3594 24.2266C93.6198 24.3411 93.9141 24.3984 94.2422 24.3984C94.6484 24.3984 95.026 24.3203 95.375 24.1641C95.7292 24.0026 96.0339 23.7604 96.2891 23.4375L97.3828 24.625C97.2057 24.8802 96.9635 25.125 96.6562 25.3594C96.3542 25.5938 95.9896 25.7865 95.5625 25.9375C95.1354 26.0833 94.6484 26.1562 94.1016 26.1562ZM101.055 19.3516V26H98.8047V17.5469H100.914L101.055 19.3516ZM100.727 21.4766H100.117C100.117 20.8516 100.198 20.2891 100.359 19.7891C100.521 19.2839 100.747 18.8542 101.039 18.5C101.331 18.1406 101.677 17.8672 102.078 17.6797C102.484 17.487 102.938 17.3906 103.438 17.3906C103.833 17.3906 104.195 17.4479 104.523 17.5625C104.852 17.6771 105.133 17.8594 105.367 18.1094C105.607 18.3594 105.789 18.6901 105.914 19.1016C106.044 19.513 106.109 20.0156 106.109 20.6094V26H103.844V20.6016C103.844 20.2266 103.792 19.9349 103.688 19.7266C103.583 19.5182 103.43 19.3724 103.227 19.2891C103.029 19.2005 102.784 19.1562 102.492 19.1562C102.19 19.1562 101.927 19.2161 101.703 19.3359C101.484 19.4557 101.302 19.6224 101.156 19.8359C101.016 20.0443 100.909 20.2891 100.836 20.5703C100.763 20.8516 100.727 21.1536 100.727 21.4766ZM111.961 17.5469V19.1406H107.039V17.5469H111.961ZM108.258 15.4609H110.508V23.4531C110.508 23.6979 110.539 23.8854 110.602 24.0156C110.669 24.1458 110.768 24.237 110.898 24.2891C111.029 24.3359 111.193 24.3594 111.391 24.3594C111.531 24.3594 111.656 24.3542 111.766 24.3438C111.88 24.3281 111.977 24.3125 112.055 24.2969L112.062 25.9531C111.87 26.0156 111.661 26.0651 111.438 26.1016C111.214 26.138 110.966 26.1562 110.695 26.1562C110.201 26.1562 109.768 26.0755 109.398 25.9141C109.034 25.7474 108.753 25.4818 108.555 25.1172C108.357 24.7526 108.258 24.2734 108.258 23.6797V15.4609ZM115.492 19.3906V26H113.242V17.5469H115.359L115.492 19.3906ZM118.039 17.4922L118 19.5781C117.891 19.5625 117.758 19.5495 117.602 19.5391C117.451 19.5234 117.312 19.5156 117.188 19.5156C116.87 19.5156 116.594 19.5573 116.359 19.6406C116.13 19.7188 115.938 19.8359 115.781 19.9922C115.63 20.1484 115.516 20.3385 115.438 20.5625C115.365 20.7865 115.323 21.0417 115.312 21.3281L114.859 21.1875C114.859 20.6406 114.914 20.138 115.023 19.6797C115.133 19.2161 115.292 18.8125 115.5 18.4688C115.714 18.125 115.974 17.8594 116.281 17.6719C116.589 17.4844 116.94 17.3906 117.336 17.3906C117.461 17.3906 117.589 17.401 117.719 17.4219C117.849 17.4375 117.956 17.4609 118.039 17.4922ZM118.508 21.8594V21.6953C118.508 21.0755 118.596 20.5052 118.773 19.9844C118.951 19.4583 119.208 19.0026 119.547 18.6172C119.885 18.2318 120.302 17.9323 120.797 17.7188C121.292 17.5 121.859 17.3906 122.5 17.3906C123.141 17.3906 123.711 17.5 124.211 17.7188C124.711 17.9323 125.13 18.2318 125.469 18.6172C125.812 19.0026 126.073 19.4583 126.25 19.9844C126.427 20.5052 126.516 21.0755 126.516 21.6953V21.8594C126.516 22.474 126.427 23.0443 126.25 23.5703C126.073 24.0911 125.812 24.5469 125.469 24.9375C125.13 25.3229 124.714 25.6224 124.219 25.8359C123.724 26.0495 123.156 26.1562 122.516 26.1562C121.875 26.1562 121.305 26.0495 120.805 25.8359C120.31 25.6224 119.891 25.3229 119.547 24.9375C119.208 24.5469 118.951 24.0911 118.773 23.5703C118.596 23.0443 118.508 22.474 118.508 21.8594ZM120.758 21.6953V21.8594C120.758 22.2135 120.789 22.5443 120.852 22.8516C120.914 23.1589 121.013 23.4297 121.148 23.6641C121.289 23.8932 121.471 24.0729 121.695 24.2031C121.919 24.3333 122.193 24.3984 122.516 24.3984C122.828 24.3984 123.096 24.3333 123.32 24.2031C123.544 24.0729 123.724 23.8932 123.859 23.6641C123.995 23.4297 124.094 23.1589 124.156 22.8516C124.224 22.5443 124.258 22.2135 124.258 21.8594V21.6953C124.258 21.3516 124.224 21.0286 124.156 20.7266C124.094 20.4193 123.992 20.1484 123.852 19.9141C123.716 19.6745 123.536 19.487 123.312 19.3516C123.089 19.2161 122.818 19.1484 122.5 19.1484C122.182 19.1484 121.911 19.2161 121.688 19.3516C121.469 19.487 121.289 19.6745 121.148 19.9141C121.013 20.1484 120.914 20.4193 120.852 20.7266C120.789 21.0286 120.758 21.3516 120.758 21.6953ZM130.031 24.1016L130.023 25.6094C130.023 26.1875 129.878 26.7708 129.586 27.3594C129.299 27.9479 128.935 28.4297 128.492 28.8047L127.32 28.2031C127.451 27.9635 127.578 27.724 127.703 27.4844C127.828 27.2448 127.932 26.9818 128.016 26.6953C128.099 26.4089 128.141 26.0833 128.141 25.7188V24.1016H130.031ZM138.023 19.3516V26H135.773V17.5469H137.883L138.023 19.3516ZM137.695 21.4766H137.086C137.086 20.8516 137.167 20.2891 137.328 19.7891C137.49 19.2839 137.716 18.8542 138.008 18.5C138.299 18.1406 138.646 17.8672 139.047 17.6797C139.453 17.487 139.906 17.3906 140.406 17.3906C140.802 17.3906 141.164 17.4479 141.492 17.5625C141.82 17.6771 142.102 17.8594 142.336 18.1094C142.576 18.3594 142.758 18.6901 142.883 19.1016C143.013 19.513 143.078 20.0156 143.078 20.6094V26H140.812V20.6016C140.812 20.2266 140.76 19.9349 140.656 19.7266C140.552 19.5182 140.398 19.3724 140.195 19.2891C139.997 19.2005 139.753 19.1562 139.461 19.1562C139.159 19.1562 138.896 19.2161 138.672 19.3359C138.453 19.4557 138.271 19.6224 138.125 19.8359C137.984 20.0443 137.878 20.2891 137.805 20.5703C137.732 20.8516 137.695 21.1536 137.695 21.4766ZM144.852 17.8438V17.2344C144.852 16.6927 144.961 16.2161 145.18 15.8047C145.398 15.388 145.708 15.0625 146.109 14.8281C146.516 14.5885 146.992 14.4688 147.539 14.4688C148.102 14.4688 148.583 14.5885 148.984 14.8281C149.385 15.0625 149.695 15.388 149.914 15.8047C150.133 16.2161 150.242 16.6927 150.242 17.2344V17.8438C150.242 18.3802 150.133 18.8568 149.914 19.2734C149.695 19.6901 149.385 20.0182 148.984 20.2578C148.589 20.4922 148.112 20.6094 147.555 20.6094C147.003 20.6094 146.523 20.4922 146.117 20.2578C145.711 20.0182 145.398 19.6901 145.18 19.2734C144.961 18.8568 144.852 18.3802 144.852 17.8438ZM146.188 17.2344V17.8438C146.188 18.1562 146.237 18.4375 146.336 18.6875C146.435 18.9323 146.586 19.1276 146.789 19.2734C146.992 19.4141 147.247 19.4844 147.555 19.4844C147.857 19.4844 148.107 19.4141 148.305 19.2734C148.508 19.1276 148.659 18.9323 148.758 18.6875C148.857 18.4375 148.906 18.1562 148.906 17.8438V17.2344C148.906 16.9271 148.854 16.651 148.75 16.4062C148.651 16.1615 148.5 15.9661 148.297 15.8203C148.099 15.6745 147.846 15.6016 147.539 15.6016C147.237 15.6016 146.984 15.6745 146.781 15.8203C146.583 15.9661 146.435 16.1615 146.336 16.4062C146.237 16.651 146.188 16.9271 146.188 17.2344ZM158.125 20.8203L156.328 20.3906L156.977 14.625H163.367V16.4453H158.828L158.547 18.9688C158.698 18.8802 158.927 18.7865 159.234 18.6875C159.542 18.5833 159.885 18.5312 160.266 18.5312C160.818 18.5312 161.307 18.6172 161.734 18.7891C162.161 18.9609 162.523 19.2109 162.82 19.5391C163.122 19.8672 163.352 20.2682 163.508 20.7422C163.664 21.2161 163.742 21.7526 163.742 22.3516C163.742 22.8568 163.664 23.3385 163.508 23.7969C163.352 24.25 163.115 24.6562 162.797 25.0156C162.479 25.3698 162.081 25.6484 161.602 25.8516C161.122 26.0547 160.555 26.1562 159.898 26.1562C159.409 26.1562 158.935 26.0833 158.477 25.9375C158.023 25.7917 157.615 25.5755 157.25 25.2891C156.891 25.0026 156.602 24.6562 156.383 24.25C156.169 23.8385 156.057 23.3698 156.047 22.8438H158.281C158.312 23.1667 158.396 23.4453 158.531 23.6797C158.672 23.9089 158.857 24.0859 159.086 24.2109C159.315 24.3359 159.583 24.3984 159.891 24.3984C160.177 24.3984 160.422 24.3438 160.625 24.2344C160.828 24.125 160.992 23.974 161.117 23.7812C161.242 23.5833 161.333 23.3542 161.391 23.0938C161.453 22.8281 161.484 22.5417 161.484 22.2344C161.484 21.9271 161.448 21.6484 161.375 21.3984C161.302 21.1484 161.19 20.9323 161.039 20.75C160.888 20.5677 160.695 20.4271 160.461 20.3281C160.232 20.2292 159.964 20.1797 159.656 20.1797C159.24 20.1797 158.917 20.2448 158.688 20.375C158.464 20.5052 158.276 20.6536 158.125 20.8203ZM170.68 14.6016V26H168.43V17.1953L165.727 18.0547V16.2812L170.438 14.6016H170.68ZM179.867 14.6016V26H177.617V17.1953L174.914 18.0547V16.2812L179.625 14.6016H179.867ZM191.352 24.2422V26H183.57V24.5L187.25 20.5547C187.62 20.1432 187.911 19.7812 188.125 19.4688C188.339 19.151 188.492 18.8672 188.586 18.6172C188.685 18.362 188.734 18.1198 188.734 17.8906C188.734 17.5469 188.677 17.2526 188.562 17.0078C188.448 16.7578 188.279 16.5651 188.055 16.4297C187.836 16.2943 187.565 16.2266 187.242 16.2266C186.898 16.2266 186.602 16.3099 186.352 16.4766C186.107 16.6432 185.919 16.875 185.789 17.1719C185.664 17.4688 185.602 17.8047 185.602 18.1797H183.344C183.344 17.5026 183.505 16.8828 183.828 16.3203C184.151 15.7526 184.607 15.3021 185.195 14.9688C185.784 14.6302 186.482 14.4609 187.289 14.4609C188.086 14.4609 188.758 14.5911 189.305 14.8516C189.857 15.1068 190.273 15.4766 190.555 15.9609C190.841 16.4401 190.984 17.013 190.984 17.6797C190.984 18.0547 190.924 18.4219 190.805 18.7812C190.685 19.1354 190.513 19.4896 190.289 19.8438C190.07 20.1927 189.805 20.5469 189.492 20.9062C189.18 21.2656 188.833 21.638 188.453 22.0234L186.477 24.2422H191.352Z" fill="#191414"/>
<path d="M26.1953 43.5469V43.375C26.1953 42.276 26.3099 41.2786 26.5391 40.3828C26.7734 39.487 27.0807 38.7005 27.4609 38.0234C27.8464 37.3411 28.2656 36.776 28.7188 36.3281C29.1719 35.8802 29.6224 35.5573 30.0703 35.3594L30.5 36.5469C30.2031 36.7656 29.9115 37.0677 29.625 37.4531C29.3385 37.8333 29.0781 38.3021 28.8438 38.8594C28.6146 39.4115 28.4297 40.0625 28.2891 40.8125C28.1484 41.5573 28.0781 42.4062 28.0781 43.3594V43.5625C28.0781 44.5156 28.1484 45.3672 28.2891 46.1172C28.4297 46.862 28.6146 47.513 28.8438 48.0703C29.0781 48.6328 29.3385 49.1068 29.625 49.4922C29.9115 49.8776 30.2031 50.1823 30.5 50.4062L30.0703 51.5625C29.6224 51.3646 29.1719 51.0417 28.7188 50.5938C28.2656 50.151 27.8464 49.5885 27.4609 48.9062C27.0807 48.2292 26.7734 47.4427 26.5391 46.5469C26.3099 45.6458 26.1953 44.6458 26.1953 43.5469ZM39.0469 41.6641V43.625H31.25V41.6641H39.0469ZM36.2188 38.5781V46.8594H34.0859V38.5781H36.2188ZM48.0938 46.2422V48H40.3125V46.5L43.9922 42.5547C44.362 42.1432 44.6536 41.7812 44.8672 41.4688C45.0807 41.151 45.2344 40.8672 45.3281 40.6172C45.4271 40.362 45.4766 40.1198 45.4766 39.8906C45.4766 39.5469 45.4193 39.2526 45.3047 39.0078C45.1901 38.7578 45.0208 38.5651 44.7969 38.4297C44.5781 38.2943 44.3073 38.2266 43.9844 38.2266C43.6406 38.2266 43.3438 38.3099 43.0938 38.4766C42.849 38.6432 42.6615 38.875 42.5312 39.1719C42.4062 39.4688 42.3438 39.8047 42.3438 40.1797H40.0859C40.0859 39.5026 40.2474 38.8828 40.5703 38.3203C40.8932 37.7526 41.349 37.3021 41.9375 36.9688C42.526 36.6302 43.224 36.4609 44.0312 36.4609C44.8281 36.4609 45.5 36.5911 46.0469 36.8516C46.599 37.1068 47.0156 37.4766 47.2969 37.9609C47.5833 38.4401 47.7266 39.013 47.7266 39.6797C47.7266 40.0547 47.6667 40.4219 47.5469 40.7812C47.4271 41.1354 47.2552 41.4896 47.0312 41.8438C46.8125 42.1927 46.5469 42.5469 46.2344 42.9062C45.9219 43.2656 45.5755 43.638 45.1953 44.0234L43.2188 46.2422H48.0938ZM57.4688 43.75V45.5156H49.2734L49.1641 44.1484L53.9062 36.625H55.6953L53.7578 39.8672L51.3984 43.75H57.4688ZM56.1797 36.625V48H53.9297V36.625H56.1797ZM66.6562 43.75V45.5156H58.4609L58.3516 44.1484L63.0938 36.625H64.8828L62.9453 39.8672L60.5859 43.75H66.6562ZM65.3672 36.625V48H63.1172V36.625H65.3672ZM71.8359 43.375V43.5469C71.8359 44.6094 71.7161 45.5885 71.4766 46.4844C71.237 47.375 70.9193 48.1641 70.5234 48.8516C70.1328 49.5443 69.7031 50.1198 69.2344 50.5781C68.7708 51.0365 68.3073 51.3646 67.8438 51.5625L67.4062 50.4062C67.7031 50.1875 67.9922 49.8854 68.2734 49.5C68.5599 49.1146 68.8203 48.6406 69.0547 48.0781C69.2891 47.5208 69.474 46.8672 69.6094 46.1172C69.75 45.3672 69.8203 44.5156 69.8203 43.5625V43.3594C69.8203 42.4062 69.75 41.5547 69.6094 40.8047C69.4688 40.0547 69.2786 39.401 69.0391 38.8438C68.8047 38.2812 68.5443 37.8099 68.2578 37.4297C67.9766 37.0443 67.6927 36.7422 67.4062 36.5234L67.8438 35.3594C68.3073 35.5573 68.7708 35.888 69.2344 36.3516C69.7031 36.8099 70.1328 37.3828 70.5234 38.0703C70.9193 38.7578 71.237 39.5495 71.4766 40.4453C71.7161 41.3359 71.8359 42.3125 71.8359 43.375ZM79.0781 46.2891H79.2266C79.8516 46.2891 80.388 46.2135 80.8359 46.0625C81.2891 45.9062 81.6615 45.6823 81.9531 45.3906C82.2448 45.099 82.4609 44.7422 82.6016 44.3203C82.7422 43.8932 82.8125 43.4089 82.8125 42.8672V40.7109C82.8125 40.2995 82.7708 39.9375 82.6875 39.625C82.6094 39.3125 82.4948 39.0547 82.3438 38.8516C82.1979 38.6432 82.026 38.487 81.8281 38.3828C81.6354 38.2786 81.4219 38.2266 81.1875 38.2266C80.9375 38.2266 80.7161 38.2891 80.5234 38.4141C80.3307 38.5339 80.1667 38.6979 80.0312 38.9062C79.901 39.1146 79.7995 39.3542 79.7266 39.625C79.6589 39.8906 79.625 40.1693 79.625 40.4609C79.625 40.7526 79.6589 41.0312 79.7266 41.2969C79.7943 41.5573 79.8958 41.7891 80.0312 41.9922C80.1667 42.1901 80.3359 42.349 80.5391 42.4688C80.7422 42.5833 80.9818 42.6406 81.2578 42.6406C81.5234 42.6406 81.7604 42.5911 81.9688 42.4922C82.1823 42.388 82.362 42.2526 82.5078 42.0859C82.6589 41.9193 82.7734 41.7344 82.8516 41.5312C82.9349 41.3281 82.9766 41.1224 82.9766 40.9141L83.7188 41.3203C83.7188 41.6849 83.6406 42.0443 83.4844 42.3984C83.3281 42.7526 83.1094 43.0755 82.8281 43.3672C82.5521 43.6536 82.2318 43.8828 81.8672 44.0547C81.5026 44.2266 81.112 44.3125 80.6953 44.3125C80.1641 44.3125 79.6927 44.2161 79.2812 44.0234C78.8698 43.8255 78.5208 43.5547 78.2344 43.2109C77.9531 42.862 77.7396 42.4557 77.5938 41.9922C77.4479 41.5286 77.375 41.026 77.375 40.4844C77.375 39.9323 77.4635 39.4141 77.6406 38.9297C77.8229 38.4453 78.0807 38.0182 78.4141 37.6484C78.7526 37.2786 79.1562 36.9896 79.625 36.7812C80.099 36.5677 80.625 36.4609 81.2031 36.4609C81.7812 36.4609 82.3073 36.5729 82.7812 36.7969C83.2552 37.0208 83.6615 37.3385 84 37.75C84.3385 38.1562 84.599 38.6432 84.7812 39.2109C84.9688 39.7786 85.0625 40.4089 85.0625 41.1016V41.8828C85.0625 42.6224 84.9818 43.3099 84.8203 43.9453C84.6641 44.5807 84.4271 45.1562 84.1094 45.6719C83.7969 46.1823 83.4062 46.6198 82.9375 46.9844C82.474 47.349 81.9349 47.6276 81.3203 47.8203C80.7057 48.013 80.0182 48.1094 79.2578 48.1094H79.0781V46.2891ZM88.9766 41.3359H90.1797C90.5651 41.3359 90.8828 41.2708 91.1328 41.1406C91.3828 41.0052 91.5677 40.8177 91.6875 40.5781C91.8125 40.3333 91.875 40.0495 91.875 39.7266C91.875 39.4349 91.8177 39.1771 91.7031 38.9531C91.5938 38.724 91.4245 38.5469 91.1953 38.4219C90.9661 38.2917 90.6771 38.2266 90.3281 38.2266C90.0521 38.2266 89.7969 38.2812 89.5625 38.3906C89.3281 38.5 89.1406 38.6536 89 38.8516C88.8594 39.0495 88.7891 39.2891 88.7891 39.5703H86.5312C86.5312 38.9453 86.6979 38.401 87.0312 37.9375C87.3698 37.474 87.8229 37.112 88.3906 36.8516C88.9583 36.5911 89.5833 36.4609 90.2656 36.4609C91.0365 36.4609 91.7109 36.5859 92.2891 36.8359C92.8672 37.0807 93.3177 37.4427 93.6406 37.9219C93.9635 38.401 94.125 38.9948 94.125 39.7031C94.125 40.0625 94.0417 40.4115 93.875 40.75C93.7083 41.0833 93.4688 41.3854 93.1562 41.6562C92.849 41.9219 92.474 42.1354 92.0312 42.2969C91.5885 42.4531 91.0911 42.5312 90.5391 42.5312H88.9766V41.3359ZM88.9766 43.0469V41.8828H90.5391C91.1589 41.8828 91.7031 41.9531 92.1719 42.0938C92.6406 42.2344 93.0339 42.4375 93.3516 42.7031C93.6693 42.9635 93.9089 43.2734 94.0703 43.6328C94.2318 43.987 94.3125 44.3802 94.3125 44.8125C94.3125 45.3438 94.2109 45.8177 94.0078 46.2344C93.8047 46.6458 93.5182 46.9948 93.1484 47.2812C92.7839 47.5677 92.3568 47.7865 91.8672 47.9375C91.3776 48.0833 90.8438 48.1562 90.2656 48.1562C89.7865 48.1562 89.3151 48.0911 88.8516 47.9609C88.3932 47.8255 87.9766 47.625 87.6016 47.3594C87.2318 47.0885 86.9349 46.75 86.7109 46.3438C86.4922 45.9323 86.3828 45.4453 86.3828 44.8828H88.6406C88.6406 45.1745 88.7135 45.4349 88.8594 45.6641C89.0052 45.8932 89.2057 46.0729 89.4609 46.2031C89.7214 46.3333 90.0104 46.3984 90.3281 46.3984C90.6875 46.3984 90.9948 46.3333 91.25 46.2031C91.5104 46.0677 91.7083 45.8802 91.8438 45.6406C91.9844 45.3958 92.0547 45.112 92.0547 44.7891C92.0547 44.3724 91.9792 44.0391 91.8281 43.7891C91.6771 43.5339 91.4609 43.3464 91.1797 43.2266C90.8984 43.1068 90.5651 43.0469 90.1797 43.0469H88.9766ZM98.1641 41.3359H99.3672C99.7526 41.3359 100.07 41.2708 100.32 41.1406C100.57 41.0052 100.755 40.8177 100.875 40.5781C101 40.3333 101.062 40.0495 101.062 39.7266C101.062 39.4349 101.005 39.1771 100.891 38.9531C100.781 38.724 100.612 38.5469 100.383 38.4219C100.154 38.2917 99.8646 38.2266 99.5156 38.2266C99.2396 38.2266 98.9844 38.2812 98.75 38.3906C98.5156 38.5 98.3281 38.6536 98.1875 38.8516C98.0469 39.0495 97.9766 39.2891 97.9766 39.5703H95.7188C95.7188 38.9453 95.8854 38.401 96.2188 37.9375C96.5573 37.474 97.0104 37.112 97.5781 36.8516C98.1458 36.5911 98.7708 36.4609 99.4531 36.4609C100.224 36.4609 100.898 36.5859 101.477 36.8359C102.055 37.0807 102.505 37.4427 102.828 37.9219C103.151 38.401 103.312 38.9948 103.312 39.7031C103.312 40.0625 103.229 40.4115 103.062 40.75C102.896 41.0833 102.656 41.3854 102.344 41.6562C102.036 41.9219 101.661 42.1354 101.219 42.2969C100.776 42.4531 100.279 42.5312 99.7266 42.5312H98.1641V41.3359ZM98.1641 43.0469V41.8828H99.7266C100.346 41.8828 100.891 41.9531 101.359 42.0938C101.828 42.2344 102.221 42.4375 102.539 42.7031C102.857 42.9635 103.096 43.2734 103.258 43.6328C103.419 43.987 103.5 44.3802 103.5 44.8125C103.5 45.3438 103.398 45.8177 103.195 46.2344C102.992 46.6458 102.706 46.9948 102.336 47.2812C101.971 47.5677 101.544 47.7865 101.055 47.9375C100.565 48.0833 100.031 48.1562 99.4531 48.1562C98.974 48.1562 98.5026 48.0911 98.0391 47.9609C97.5807 47.8255 97.1641 47.625 96.7891 47.3594C96.4193 47.0885 96.1224 46.75 95.8984 46.3438C95.6797 45.9323 95.5703 45.4453 95.5703 44.8828H97.8281C97.8281 45.1745 97.901 45.4349 98.0469 45.6641C98.1927 45.8932 98.3932 46.0729 98.6484 46.2031C98.9089 46.3333 99.1979 46.3984 99.5156 46.3984C99.875 46.3984 100.182 46.3333 100.438 46.2031C100.698 46.0677 100.896 45.8802 101.031 45.6406C101.172 45.3958 101.242 45.112 101.242 44.7891C101.242 44.3724 101.167 44.0391 101.016 43.7891C100.865 43.5339 100.648 43.3464 100.367 43.2266C100.086 43.1068 99.7526 43.0469 99.3672 43.0469H98.1641ZM109.578 42.2344V44H105.164V42.2344H109.578ZM117.164 36.5078H117.492V38.3047H117.359C116.766 38.3047 116.237 38.3932 115.773 38.5703C115.31 38.7474 114.917 39 114.594 39.3281C114.276 39.651 114.031 40.0417 113.859 40.5C113.693 40.9583 113.609 41.4714 113.609 42.0391V43.9297C113.609 44.3359 113.648 44.6953 113.727 45.0078C113.81 45.3151 113.927 45.5729 114.078 45.7812C114.234 45.9844 114.417 46.138 114.625 46.2422C114.833 46.3411 115.068 46.3906 115.328 46.3906C115.573 46.3906 115.794 46.3385 115.992 46.2344C116.195 46.1302 116.367 45.9844 116.508 45.7969C116.654 45.6042 116.763 45.3802 116.836 45.125C116.914 44.8646 116.953 44.5807 116.953 44.2734C116.953 43.9661 116.914 43.6823 116.836 43.4219C116.763 43.1615 116.654 42.9375 116.508 42.75C116.362 42.5573 116.185 42.4089 115.977 42.3047C115.768 42.2005 115.534 42.1484 115.273 42.1484C114.919 42.1484 114.607 42.2318 114.336 42.3984C114.07 42.5599 113.862 42.7682 113.711 43.0234C113.56 43.2786 113.479 43.5469 113.469 43.8281L112.789 43.3906C112.805 42.9896 112.888 42.6094 113.039 42.25C113.195 41.8906 113.409 41.5729 113.68 41.2969C113.956 41.0156 114.286 40.7969 114.672 40.6406C115.057 40.4792 115.492 40.3984 115.977 40.3984C116.508 40.3984 116.974 40.5 117.375 40.7031C117.781 40.9062 118.12 41.1849 118.391 41.5391C118.661 41.8932 118.865 42.3021 119 42.7656C119.135 43.2292 119.203 43.724 119.203 44.25C119.203 44.8021 119.112 45.3151 118.93 45.7891C118.753 46.263 118.495 46.6771 118.156 47.0312C117.823 47.3854 117.422 47.6615 116.953 47.8594C116.484 48.0573 115.958 48.1562 115.375 48.1562C114.771 48.1562 114.221 48.0469 113.727 47.8281C113.237 47.6042 112.815 47.2917 112.461 46.8906C112.107 46.4896 111.833 46.013 111.641 45.4609C111.453 44.9089 111.359 44.3047 111.359 43.6484V42.7734C111.359 41.8568 111.492 41.0182 111.758 40.2578C112.029 39.4922 112.417 38.8307 112.922 38.2734C113.427 37.7109 114.036 37.276 114.75 36.9688C115.464 36.6615 116.268 36.5078 117.164 36.5078ZM128.516 43.75V45.5156H120.32L120.211 44.1484L124.953 36.625H126.742L124.805 39.8672L122.445 43.75H128.516ZM127.227 36.625V48H124.977V36.625H127.227ZM137.461 36.625V37.8359L133.062 48H130.688L135.086 38.3828H129.422V36.625H137.461ZM143.453 42.2344V44H139.039V42.2344H143.453ZM153.203 43.75V45.5156H145.008L144.898 44.1484L149.641 36.625H151.43L149.492 39.8672L147.133 43.75H153.203ZM151.914 36.625V48H149.664V36.625H151.914ZM162.078 41.3125V43.2812C162.078 44.1354 161.987 44.8724 161.805 45.4922C161.622 46.1068 161.359 46.612 161.016 47.0078C160.677 47.3984 160.273 47.6875 159.805 47.875C159.336 48.0625 158.815 48.1562 158.242 48.1562C157.784 48.1562 157.357 48.099 156.961 47.9844C156.565 47.8646 156.208 47.6797 155.891 47.4297C155.578 47.1797 155.307 46.8646 155.078 46.4844C154.854 46.099 154.682 45.6406 154.562 45.1094C154.443 44.5781 154.383 43.9688 154.383 43.2812V41.3125C154.383 40.4583 154.474 39.7266 154.656 39.1172C154.844 38.5026 155.107 38 155.445 37.6094C155.789 37.2188 156.195 36.9323 156.664 36.75C157.133 36.5625 157.654 36.4688 158.227 36.4688C158.685 36.4688 159.109 36.5286 159.5 36.6484C159.896 36.763 160.253 36.9427 160.57 37.1875C160.888 37.4323 161.159 37.7474 161.383 38.1328C161.607 38.513 161.779 38.9688 161.898 39.5C162.018 40.026 162.078 40.6302 162.078 41.3125ZM159.82 43.5781V41.0078C159.82 40.5964 159.797 40.237 159.75 39.9297C159.708 39.6224 159.643 39.362 159.555 39.1484C159.466 38.9297 159.357 38.7526 159.227 38.6172C159.096 38.4818 158.948 38.3828 158.781 38.3203C158.615 38.2578 158.43 38.2266 158.227 38.2266C157.971 38.2266 157.745 38.276 157.547 38.375C157.354 38.474 157.19 38.6328 157.055 38.8516C156.919 39.0651 156.815 39.3516 156.742 39.7109C156.674 40.0651 156.641 40.4974 156.641 41.0078V43.5781C156.641 43.9896 156.661 44.3516 156.703 44.6641C156.75 44.9766 156.818 45.2448 156.906 45.4688C157 45.6875 157.109 45.8672 157.234 46.0078C157.365 46.1432 157.513 46.2422 157.68 46.3047C157.852 46.3672 158.039 46.3984 158.242 46.3984C158.492 46.3984 158.714 46.349 158.906 46.25C159.104 46.1458 159.271 45.9844 159.406 45.7656C159.547 45.5417 159.651 45.25 159.719 44.8906C159.786 44.5312 159.82 44.0938 159.82 43.5781ZM171.391 46.2422V48H163.609V46.5L167.289 42.5547C167.659 42.1432 167.951 41.7812 168.164 41.4688C168.378 41.151 168.531 40.8672 168.625 40.6172C168.724 40.362 168.773 40.1198 168.773 39.8906C168.773 39.5469 168.716 39.2526 168.602 39.0078C168.487 38.7578 168.318 38.5651 168.094 38.4297C167.875 38.2943 167.604 38.2266 167.281 38.2266C166.938 38.2266 166.641 38.3099 166.391 38.4766C166.146 38.6432 165.958 38.875 165.828 39.1719C165.703 39.4688 165.641 39.8047 165.641 40.1797H163.383C163.383 39.5026 163.544 38.8828 163.867 38.3203C164.19 37.7526 164.646 37.3021 165.234 36.9688C165.823 36.6302 166.521 36.4609 167.328 36.4609C168.125 36.4609 168.797 36.5911 169.344 36.8516C169.896 37.1068 170.312 37.4766 170.594 37.9609C170.88 38.4401 171.023 39.013 171.023 39.6797C171.023 40.0547 170.964 40.4219 170.844 40.7812C170.724 41.1354 170.552 41.4896 170.328 41.8438C170.109 42.1927 169.844 42.5469 169.531 42.9062C169.219 43.2656 168.872 43.638 168.492 44.0234L166.516 46.2422H171.391ZM180.961 43.5469V43.375C180.961 42.276 181.076 41.2786 181.305 40.3828C181.539 39.487 181.846 38.7005 182.227 38.0234C182.612 37.3411 183.031 36.776 183.484 36.3281C183.938 35.8802 184.388 35.5573 184.836 35.3594L185.266 36.5469C184.969 36.7656 184.677 37.0677 184.391 37.4531C184.104 37.8333 183.844 38.3021 183.609 38.8594C183.38 39.4115 183.195 40.0625 183.055 40.8125C182.914 41.5573 182.844 42.4062 182.844 43.3594V43.5625C182.844 44.5156 182.914 45.3672 183.055 46.1172C183.195 46.862 183.38 47.513 183.609 48.0703C183.844 48.6328 184.104 49.1068 184.391 49.4922C184.677 49.8776 184.969 50.1823 185.266 50.4062L184.836 51.5625C184.388 51.3646 183.938 51.0417 183.484 50.5938C183.031 50.151 182.612 49.5885 182.227 48.9062C181.846 48.2292 181.539 47.4427 181.305 46.5469C181.076 45.6458 180.961 44.6458 180.961 43.5469ZM193.812 41.6641V43.625H186.016V41.6641H193.812ZM190.984 38.5781V46.8594H188.852V38.5781H190.984ZM202.859 46.2422V48H195.078V46.5L198.758 42.5547C199.128 42.1432 199.419 41.7812 199.633 41.4688C199.846 41.151 200 40.8672 200.094 40.6172C200.193 40.362 200.242 40.1198 200.242 39.8906C200.242 39.5469 200.185 39.2526 200.07 39.0078C199.956 38.7578 199.786 38.5651 199.562 38.4297C199.344 38.2943 199.073 38.2266 198.75 38.2266C198.406 38.2266 198.109 38.3099 197.859 38.4766C197.615 38.6432 197.427 38.875 197.297 39.1719C197.172 39.4688 197.109 39.8047 197.109 40.1797H194.852C194.852 39.5026 195.013 38.8828 195.336 38.3203C195.659 37.7526 196.115 37.3021 196.703 36.9688C197.292 36.6302 197.99 36.4609 198.797 36.4609C199.594 36.4609 200.266 36.5911 200.812 36.8516C201.365 37.1068 201.781 37.4766 202.062 37.9609C202.349 38.4401 202.492 39.013 202.492 39.6797C202.492 40.0547 202.432 40.4219 202.312 40.7812C202.193 41.1354 202.021 41.4896 201.797 41.8438C201.578 42.1927 201.312 42.5469 201 42.9062C200.688 43.2656 200.341 43.638 199.961 44.0234L197.984 46.2422H202.859ZM212.234 43.75V45.5156H204.039L203.93 44.1484L208.672 36.625H210.461L208.523 39.8672L206.164 43.75H212.234ZM210.945 36.625V48H208.695V36.625H210.945ZM221.422 43.75V45.5156H213.227L213.117 44.1484L217.859 36.625H219.648L217.711 39.8672L215.352 43.75H221.422ZM220.133 36.625V48H217.883V36.625H220.133ZM226.602 43.375V43.5469C226.602 44.6094 226.482 45.5885 226.242 46.4844C226.003 47.375 225.685 48.1641 225.289 48.8516C224.898 49.5443 224.469 50.1198 224 50.5781C223.536 51.0365 223.073 51.3646 222.609 51.5625L222.172 50.4062C222.469 50.1875 222.758 49.8854 223.039 49.5C223.326 49.1146 223.586 48.6406 223.82 48.0781C224.055 47.5208 224.24 46.8672 224.375 46.1172C224.516 45.3672 224.586 44.5156 224.586 43.5625V43.3594C224.586 42.4062 224.516 41.5547 224.375 40.8047C224.234 40.0547 224.044 39.401 223.805 38.8438C223.57 38.2812 223.31 37.8099 223.023 37.4297C222.742 37.0443 222.458 36.7422 222.172 36.5234L222.609 35.3594C223.073 35.5573 223.536 35.888 224 36.3516C224.469 36.8099 224.898 37.3828 225.289 38.0703C225.685 38.7578 226.003 39.5495 226.242 40.4453C226.482 41.3359 226.602 42.3125 226.602 43.375ZM233.844 46.2891H233.992C234.617 46.2891 235.154 46.2135 235.602 46.0625C236.055 45.9062 236.427 45.6823 236.719 45.3906C237.01 45.099 237.227 44.7422 237.367 44.3203C237.508 43.8932 237.578 43.4089 237.578 42.8672V40.7109C237.578 40.2995 237.536 39.9375 237.453 39.625C237.375 39.3125 237.26 39.0547 237.109 38.8516C236.964 38.6432 236.792 38.487 236.594 38.3828C236.401 38.2786 236.188 38.2266 235.953 38.2266C235.703 38.2266 235.482 38.2891 235.289 38.4141C235.096 38.5339 234.932 38.6979 234.797 38.9062C234.667 39.1146 234.565 39.3542 234.492 39.625C234.424 39.8906 234.391 40.1693 234.391 40.4609C234.391 40.7526 234.424 41.0312 234.492 41.2969C234.56 41.5573 234.661 41.7891 234.797 41.9922C234.932 42.1901 235.102 42.349 235.305 42.4688C235.508 42.5833 235.747 42.6406 236.023 42.6406C236.289 42.6406 236.526 42.5911 236.734 42.4922C236.948 42.388 237.128 42.2526 237.273 42.0859C237.424 41.9193 237.539 41.7344 237.617 41.5312C237.701 41.3281 237.742 41.1224 237.742 40.9141L238.484 41.3203C238.484 41.6849 238.406 42.0443 238.25 42.3984C238.094 42.7526 237.875 43.0755 237.594 43.3672C237.318 43.6536 236.997 43.8828 236.633 44.0547C236.268 44.2266 235.878 44.3125 235.461 44.3125C234.93 44.3125 234.458 44.2161 234.047 44.0234C233.635 43.8255 233.286 43.5547 233 43.2109C232.719 42.862 232.505 42.4557 232.359 41.9922C232.214 41.5286 232.141 41.026 232.141 40.4844C232.141 39.9323 232.229 39.4141 232.406 38.9297C232.589 38.4453 232.846 38.0182 233.18 37.6484C233.518 37.2786 233.922 36.9896 234.391 36.7812C234.865 36.5677 235.391 36.4609 235.969 36.4609C236.547 36.4609 237.073 36.5729 237.547 36.7969C238.021 37.0208 238.427 37.3385 238.766 37.75C239.104 38.1562 239.365 38.6432 239.547 39.2109C239.734 39.7786 239.828 40.4089 239.828 41.1016V41.8828C239.828 42.6224 239.747 43.3099 239.586 43.9453C239.43 44.5807 239.193 45.1562 238.875 45.6719C238.562 46.1823 238.172 46.6198 237.703 46.9844C237.24 47.349 236.701 47.6276 236.086 47.8203C235.471 48.013 234.784 48.1094 234.023 48.1094H233.844V46.2891ZM243.555 42.8203L241.758 42.3906L242.406 36.625H248.797V38.4453H244.258L243.977 40.9688C244.128 40.8802 244.357 40.7865 244.664 40.6875C244.971 40.5833 245.315 40.5312 245.695 40.5312C246.247 40.5312 246.737 40.6172 247.164 40.7891C247.591 40.9609 247.953 41.2109 248.25 41.5391C248.552 41.8672 248.781 42.2682 248.938 42.7422C249.094 43.2161 249.172 43.7526 249.172 44.3516C249.172 44.8568 249.094 45.3385 248.938 45.7969C248.781 46.25 248.544 46.6562 248.227 47.0156C247.909 47.3698 247.51 47.6484 247.031 47.8516C246.552 48.0547 245.984 48.1562 245.328 48.1562C244.839 48.1562 244.365 48.0833 243.906 47.9375C243.453 47.7917 243.044 47.5755 242.68 47.2891C242.32 47.0026 242.031 46.6562 241.812 46.25C241.599 45.8385 241.487 45.3698 241.477 44.8438H243.711C243.742 45.1667 243.826 45.4453 243.961 45.6797C244.102 45.9089 244.286 46.0859 244.516 46.2109C244.745 46.3359 245.013 46.3984 245.32 46.3984C245.607 46.3984 245.852 46.3438 246.055 46.2344C246.258 46.125 246.422 45.974 246.547 45.7812C246.672 45.5833 246.763 45.3542 246.82 45.0938C246.883 44.8281 246.914 44.5417 246.914 44.2344C246.914 43.9271 246.878 43.6484 246.805 43.3984C246.732 43.1484 246.62 42.9323 246.469 42.75C246.318 42.5677 246.125 42.4271 245.891 42.3281C245.661 42.2292 245.393 42.1797 245.086 42.1797C244.669 42.1797 244.346 42.2448 244.117 42.375C243.893 42.5052 243.706 42.6536 243.555 42.8203ZM258.281 41.3125V43.2812C258.281 44.1354 258.19 44.8724 258.008 45.4922C257.826 46.1068 257.562 46.612 257.219 47.0078C256.88 47.3984 256.477 47.6875 256.008 47.875C255.539 48.0625 255.018 48.1562 254.445 48.1562C253.987 48.1562 253.56 48.099 253.164 47.9844C252.768 47.8646 252.411 47.6797 252.094 47.4297C251.781 47.1797 251.51 46.8646 251.281 46.4844C251.057 46.099 250.885 45.6406 250.766 45.1094C250.646 44.5781 250.586 43.9688 250.586 43.2812V41.3125C250.586 40.4583 250.677 39.7266 250.859 39.1172C251.047 38.5026 251.31 38 251.648 37.6094C251.992 37.2188 252.398 36.9323 252.867 36.75C253.336 36.5625 253.857 36.4688 254.43 36.4688C254.888 36.4688 255.312 36.5286 255.703 36.6484C256.099 36.763 256.456 36.9427 256.773 37.1875C257.091 37.4323 257.362 37.7474 257.586 38.1328C257.81 38.513 257.982 38.9688 258.102 39.5C258.221 40.026 258.281 40.6302 258.281 41.3125ZM256.023 43.5781V41.0078C256.023 40.5964 256 40.237 255.953 39.9297C255.911 39.6224 255.846 39.362 255.758 39.1484C255.669 38.9297 255.56 38.7526 255.43 38.6172C255.299 38.4818 255.151 38.3828 254.984 38.3203C254.818 38.2578 254.633 38.2266 254.43 38.2266C254.174 38.2266 253.948 38.276 253.75 38.375C253.557 38.474 253.393 38.6328 253.258 38.8516C253.122 39.0651 253.018 39.3516 252.945 39.7109C252.878 40.0651 252.844 40.4974 252.844 41.0078V43.5781C252.844 43.9896 252.865 44.3516 252.906 44.6641C252.953 44.9766 253.021 45.2448 253.109 45.4688C253.203 45.6875 253.312 45.8672 253.438 46.0078C253.568 46.1432 253.716 46.2422 253.883 46.3047C254.055 46.3672 254.242 46.3984 254.445 46.3984C254.695 46.3984 254.917 46.349 255.109 46.25C255.307 46.1458 255.474 45.9844 255.609 45.7656C255.75 45.5417 255.854 45.25 255.922 44.8906C255.99 44.5312 256.023 44.0938 256.023 43.5781ZM264.344 42.2344V44H259.93V42.2344H264.344ZM268.242 42.8203L266.445 42.3906L267.094 36.625H273.484V38.4453H268.945L268.664 40.9688C268.815 40.8802 269.044 40.7865 269.352 40.6875C269.659 40.5833 270.003 40.5312 270.383 40.5312C270.935 40.5312 271.424 40.6172 271.852 40.7891C272.279 40.9609 272.641 41.2109 272.938 41.5391C273.24 41.8672 273.469 42.2682 273.625 42.7422C273.781 43.2161 273.859 43.7526 273.859 44.3516C273.859 44.8568 273.781 45.3385 273.625 45.7969C273.469 46.25 273.232 46.6562 272.914 47.0156C272.596 47.3698 272.198 47.6484 271.719 47.8516C271.24 48.0547 270.672 48.1562 270.016 48.1562C269.526 48.1562 269.052 48.0833 268.594 47.9375C268.141 47.7917 267.732 47.5755 267.367 47.2891C267.008 47.0026 266.719 46.6562 266.5 46.25C266.286 45.8385 266.174 45.3698 266.164 44.8438H268.398C268.43 45.1667 268.513 45.4453 268.648 45.6797C268.789 45.9089 268.974 46.0859 269.203 46.2109C269.432 46.3359 269.701 46.3984 270.008 46.3984C270.294 46.3984 270.539 46.3438 270.742 46.2344C270.945 46.125 271.109 45.974 271.234 45.7812C271.359 45.5833 271.451 45.3542 271.508 45.0938C271.57 44.8281 271.602 44.5417 271.602 44.2344C271.602 43.9271 271.565 43.6484 271.492 43.3984C271.419 43.1484 271.307 42.9323 271.156 42.75C271.005 42.5677 270.812 42.4271 270.578 42.3281C270.349 42.2292 270.081 42.1797 269.773 42.1797C269.357 42.1797 269.034 42.2448 268.805 42.375C268.581 42.5052 268.393 42.6536 268.242 42.8203ZM282.977 44.8828C282.977 45.5964 282.81 46.1979 282.477 46.6875C282.143 47.1719 281.685 47.5391 281.102 47.7891C280.523 48.0339 279.867 48.1562 279.133 48.1562C278.398 48.1562 277.74 48.0339 277.156 47.7891C276.573 47.5391 276.112 47.1719 275.773 46.6875C275.435 46.1979 275.266 45.5964 275.266 44.8828C275.266 44.4036 275.362 43.9714 275.555 43.5859C275.747 43.1953 276.016 42.862 276.359 42.5859C276.708 42.3047 277.117 42.0911 277.586 41.9453C278.055 41.7943 278.565 41.7188 279.117 41.7188C279.857 41.7188 280.518 41.849 281.102 42.1094C281.685 42.3698 282.143 42.737 282.477 43.2109C282.81 43.6849 282.977 44.2422 282.977 44.8828ZM280.711 44.7344C280.711 44.3854 280.643 44.0859 280.508 43.8359C280.378 43.5807 280.193 43.3854 279.953 43.25C279.714 43.1146 279.435 43.0469 279.117 43.0469C278.799 43.0469 278.521 43.1146 278.281 43.25C278.042 43.3854 277.854 43.5807 277.719 43.8359C277.589 44.0859 277.523 44.3854 277.523 44.7344C277.523 45.0781 277.589 45.375 277.719 45.625C277.854 45.875 278.042 46.0677 278.281 46.2031C278.526 46.3333 278.81 46.3984 279.133 46.3984C279.456 46.3984 279.734 46.3333 279.969 46.2031C280.208 46.0677 280.391 45.875 280.516 45.625C280.646 45.375 280.711 45.0781 280.711 44.7344ZM282.734 39.6406C282.734 40.2188 282.581 40.7318 282.273 41.1797C281.966 41.6224 281.539 41.9688 280.992 42.2188C280.451 42.4688 279.831 42.5938 279.133 42.5938C278.43 42.5938 277.805 42.4688 277.258 42.2188C276.711 41.9688 276.284 41.6224 275.977 41.1797C275.669 40.7318 275.516 40.2188 275.516 39.6406C275.516 38.9531 275.669 38.375 275.977 37.9062C276.289 37.4323 276.716 37.0729 277.258 36.8281C277.805 36.5833 278.424 36.4609 279.117 36.4609C279.82 36.4609 280.443 36.5833 280.984 36.8281C281.531 37.0729 281.958 37.4323 282.266 37.9062C282.578 38.375 282.734 38.9531 282.734 39.6406ZM280.484 39.7422C280.484 39.4349 280.43 39.1693 280.32 38.9453C280.211 38.7161 280.055 38.5391 279.852 38.4141C279.654 38.2891 279.409 38.2266 279.117 38.2266C278.836 38.2266 278.594 38.2865 278.391 38.4062C278.193 38.526 278.039 38.7005 277.93 38.9297C277.826 39.1536 277.773 39.4245 277.773 39.7422C277.773 40.0495 277.826 40.3203 277.93 40.5547C278.039 40.7839 278.195 40.9635 278.398 41.0938C278.602 41.224 278.846 41.2891 279.133 41.2891C279.419 41.2891 279.661 41.224 279.859 41.0938C280.062 40.9635 280.216 40.7839 280.32 40.5547C280.43 40.3203 280.484 40.0495 280.484 39.7422ZM292.281 46.2422V48H284.5V46.5L288.18 42.5547C288.549 42.1432 288.841 41.7812 289.055 41.4688C289.268 41.151 289.422 40.8672 289.516 40.6172C289.615 40.362 289.664 40.1198 289.664 39.8906C289.664 39.5469 289.607 39.2526 289.492 39.0078C289.378 38.7578 289.208 38.5651 288.984 38.4297C288.766 38.2943 288.495 38.2266 288.172 38.2266C287.828 38.2266 287.531 38.3099 287.281 38.4766C287.036 38.6432 286.849 38.875 286.719 39.1719C286.594 39.4688 286.531 39.8047 286.531 40.1797H284.273C284.273 39.5026 284.435 38.8828 284.758 38.3203C285.081 37.7526 285.536 37.3021 286.125 36.9688C286.714 36.6302 287.411 36.4609 288.219 36.4609C289.016 36.4609 289.688 36.5911 290.234 36.8516C290.786 37.1068 291.203 37.4766 291.484 37.9609C291.771 38.4401 291.914 39.013 291.914 39.6797C291.914 40.0547 291.854 40.4219 291.734 40.7812C291.615 41.1354 291.443 41.4896 291.219 41.8438C291 42.1927 290.734 42.5469 290.422 42.9062C290.109 43.2656 289.763 43.638 289.383 44.0234L287.406 46.2422H292.281ZM298.219 42.2344V44H293.805V42.2344H298.219ZM305.484 36.6016V48H303.234V39.1953L300.531 40.0547V38.2812L305.242 36.6016H305.484ZM314.672 36.6016V48H312.422V39.1953L309.719 40.0547V38.2812L314.43 36.6016H314.672ZM320.492 42.8203L318.695 42.3906L319.344 36.625H325.734V38.4453H321.195L320.914 40.9688C321.065 40.8802 321.294 40.7865 321.602 40.6875C321.909 40.5833 322.253 40.5312 322.633 40.5312C323.185 40.5312 323.674 40.6172 324.102 40.7891C324.529 40.9609 324.891 41.2109 325.188 41.5391C325.49 41.8672 325.719 42.2682 325.875 42.7422C326.031 43.2161 326.109 43.7526 326.109 44.3516C326.109 44.8568 326.031 45.3385 325.875 45.7969C325.719 46.25 325.482 46.6562 325.164 47.0156C324.846 47.3698 324.448 47.6484 323.969 47.8516C323.49 48.0547 322.922 48.1562 322.266 48.1562C321.776 48.1562 321.302 48.0833 320.844 47.9375C320.391 47.7917 319.982 47.5755 319.617 47.2891C319.258 47.0026 318.969 46.6562 318.75 46.25C318.536 45.8385 318.424 45.3698 318.414 44.8438H320.648C320.68 45.1667 320.763 45.4453 320.898 45.6797C321.039 45.9089 321.224 46.0859 321.453 46.2109C321.682 46.3359 321.951 46.3984 322.258 46.3984C322.544 46.3984 322.789 46.3438 322.992 46.2344C323.195 46.125 323.359 45.974 323.484 45.7812C323.609 45.5833 323.701 45.3542 323.758 45.0938C323.82 44.8281 323.852 44.5417 323.852 44.2344C323.852 43.9271 323.815 43.6484 323.742 43.3984C323.669 43.1484 323.557 42.9323 323.406 42.75C323.255 42.5677 323.062 42.4271 322.828 42.3281C322.599 42.2292 322.331 42.1797 322.023 42.1797C321.607 42.1797 321.284 42.2448 321.055 42.375C320.831 42.5052 320.643 42.6536 320.492 42.8203Z" fill="#191414"/>
<defs>
<filter id="filter0_d_39_85" x="0" y="0.5" width="358" height="104" filterUnits="userSpaceOnUse" color-interpolation-filters="sRGB">
<feFlood flood-opacity="0" result="BackgroundImageFix"/>
<feColorMatrix in="SourceAlpha" type="matrix" values="0 0 0 0 0 0 0 0 0 0 0 0 0 0 0 0 0 0 127 0" result="hardAlpha"/>
<feOffset dy="5"/>
<feGaussianBlur stdDeviation="4"/>
<feComposite in2="hardAlpha" operator="out"/>
<feColorMatrix type="matrix" values="0 0 0 0 0 0 0 0 0 0 0 0 0 0 0 0 0 0 0.12 0"/>
<feBlend mode="normal" in2="BackgroundImageFix" result="effect1_dropShadow_39_85"/>
<feBlend mode="normal" in="SourceGraphic" in2="effect1_dropShadow_39_85" result="shape"/>
</filter>
</defs>
</svg>
