<svg width="53" height="47" viewBox="0 0 53 47" fill="none" xmlns="http://www.w3.org/2000/svg">
<path d="M47.0269 23.5C47.0269 36.4787 36.5055 47 23.5269 47C10.5482 47 0.0268555 36.4787 0.0268555 23.5C0.0268555 10.5213 10.5482 0 23.5269 0C36.5055 0 47.0269 10.5213 47.0269 23.5Z" fill="#7C7C8A"/>
<path d="M22.4009 22.8018H23.561C24.1294 22.8018 24.5981 22.708 24.9673 22.5205C25.3423 22.3271 25.6206 22.0664 25.8022 21.7383C25.9897 21.4043 26.0835 21.0293 26.0835 20.6133C26.0835 20.1211 26.0015 19.708 25.8374 19.374C25.6733 19.04 25.4272 18.7881 25.0991 18.6182C24.771 18.4482 24.355 18.3633 23.8511 18.3633C23.394 18.3633 22.9897 18.4541 22.6382 18.6357C22.2925 18.8115 22.02 19.0635 21.8208 19.3916C21.6274 19.7197 21.5308 20.1064 21.5308 20.5518H19.9048C19.9048 19.9014 20.0688 19.3096 20.397 18.7764C20.7251 18.2432 21.1851 17.8184 21.7769 17.502C22.3745 17.1855 23.0659 17.0273 23.8511 17.0273C24.6245 17.0273 25.3013 17.165 25.8813 17.4404C26.4614 17.71 26.9126 18.1143 27.2349 18.6533C27.5571 19.1865 27.7183 19.8516 27.7183 20.6484C27.7183 20.9707 27.6421 21.3164 27.4897 21.6855C27.3433 22.0488 27.1118 22.3887 26.7954 22.7051C26.4849 23.0215 26.0806 23.2822 25.5825 23.4873C25.0845 23.6865 24.4868 23.7861 23.7896 23.7861H22.4009V22.8018ZM22.4009 24.1377V23.1621H23.7896C24.604 23.1621 25.2778 23.2588 25.811 23.4521C26.3442 23.6455 26.7632 23.9033 27.0679 24.2256C27.3784 24.5479 27.5952 24.9023 27.7183 25.2891C27.8472 25.6699 27.9116 26.0508 27.9116 26.4316C27.9116 27.0293 27.8091 27.5596 27.604 28.0225C27.4048 28.4854 27.1206 28.8779 26.7515 29.2002C26.3882 29.5225 25.9604 29.7656 25.4683 29.9297C24.9761 30.0938 24.4399 30.1758 23.8599 30.1758C23.3032 30.1758 22.7788 30.0967 22.2866 29.9385C21.8003 29.7803 21.3696 29.5518 20.9946 29.2529C20.6196 28.9482 20.3267 28.5762 20.1157 28.1367C19.9048 27.6914 19.7993 27.1846 19.7993 26.6162H21.4253C21.4253 27.0615 21.522 27.4512 21.7153 27.7852C21.9146 28.1191 22.1958 28.3799 22.5591 28.5674C22.9282 28.749 23.3618 28.8398 23.8599 28.8398C24.3579 28.8398 24.7856 28.7549 25.1431 28.585C25.5063 28.4092 25.7847 28.1455 25.978 27.7939C26.1772 27.4424 26.2769 27 26.2769 26.4668C26.2769 25.9336 26.1655 25.4971 25.9429 25.1572C25.7202 24.8115 25.4038 24.5566 24.9937 24.3926C24.5894 24.2227 24.1118 24.1377 23.561 24.1377H22.4009Z" fill="#C4C4CC"/>
</svg>
