<svg width="53" height="47" viewBox="0 0 53 47" fill="none" xmlns="http://www.w3.org/2000/svg">
<path d="M47.6055 23.5C47.6055 36.4787 37.0842 47 24.1055 47C11.1268 47 0.605469 36.4787 0.605469 23.5C0.605469 10.5213 11.1268 0 24.1055 0C37.0842 0 47.6055 10.5213 47.6055 23.5Z" fill="#191414"/>
<path d="M28.4912 28.6641V30H20.1152V28.8311L24.3076 24.1641C24.8232 23.5898 25.2217 23.1035 25.5029 22.7051C25.79 22.3008 25.9893 21.9404 26.1006 21.624C26.2178 21.3018 26.2764 20.9736 26.2764 20.6396C26.2764 20.2178 26.1885 19.8369 26.0127 19.4971C25.8428 19.1514 25.5908 18.876 25.2568 18.6709C24.9229 18.4658 24.5186 18.3633 24.0439 18.3633C23.4756 18.3633 23.001 18.4746 22.6201 18.6973C22.2451 18.9141 21.9639 19.2188 21.7764 19.6113C21.5889 20.0039 21.4951 20.4551 21.4951 20.9648H19.8691C19.8691 20.2441 20.0273 19.585 20.3438 18.9873C20.6602 18.3896 21.1289 17.915 21.75 17.5635C22.3711 17.2061 23.1357 17.0273 24.0439 17.0273C24.8525 17.0273 25.5439 17.1709 26.1182 17.458C26.6924 17.7393 27.1318 18.1377 27.4365 18.6533C27.7471 19.1631 27.9023 19.7607 27.9023 20.4463C27.9023 20.8213 27.8379 21.2021 27.709 21.5889C27.5859 21.9697 27.4131 22.3506 27.1904 22.7314C26.9736 23.1123 26.7188 23.4873 26.4258 23.8564C26.1387 24.2256 25.8311 24.5889 25.5029 24.9463L22.0752 28.6641H28.4912Z" fill="white"/>
</svg>
