<svg width="53" height="47" viewBox="0 0 53 47" fill="none" xmlns="http://www.w3.org/2000/svg">
<path d="M47.0269 23.5C47.0269 36.4787 36.5055 47 23.5269 47C10.5482 47 0.0268555 36.4787 0.0268555 23.5C0.0268555 10.5213 10.5482 0 23.5269 0C36.5055 0 47.0269 10.5213 47.0269 23.5Z" fill="#191414"/>
<path d="M21.9009 22.8018H23.061C23.6294 22.8018 24.0981 22.708 24.4673 22.5205C24.8423 22.3271 25.1206 22.0664 25.3022 21.7383C25.4897 21.4043 25.5835 21.0293 25.5835 20.6133C25.5835 20.1211 25.5015 19.708 25.3374 19.374C25.1733 19.04 24.9272 18.7881 24.5991 18.6182C24.271 18.4482 23.855 18.3633 23.3511 18.3633C22.894 18.3633 22.4897 18.4541 22.1382 18.6357C21.7925 18.8115 21.52 19.0635 21.3208 19.3916C21.1274 19.7197 21.0308 20.1064 21.0308 20.5518H19.4048C19.4048 19.9014 19.5688 19.3096 19.897 18.7764C20.2251 18.2432 20.6851 17.8184 21.2769 17.502C21.8745 17.1855 22.5659 17.0273 23.3511 17.0273C24.1245 17.0273 24.8013 17.165 25.3813 17.4404C25.9614 17.71 26.4126 18.1143 26.7349 18.6533C27.0571 19.1865 27.2183 19.8516 27.2183 20.6484C27.2183 20.9707 27.1421 21.3164 26.9897 21.6855C26.8433 22.0488 26.6118 22.3887 26.2954 22.7051C25.9849 23.0215 25.5806 23.2822 25.0825 23.4873C24.5845 23.6865 23.9868 23.7861 23.2896 23.7861H21.9009V22.8018ZM21.9009 24.1377V23.1621H23.2896C24.104 23.1621 24.7778 23.2588 25.311 23.4521C25.8442 23.6455 26.2632 23.9033 26.5679 24.2256C26.8784 24.5479 27.0952 24.9023 27.2183 25.2891C27.3472 25.6699 27.4116 26.0508 27.4116 26.4316C27.4116 27.0293 27.3091 27.5596 27.104 28.0225C26.9048 28.4854 26.6206 28.8779 26.2515 29.2002C25.8882 29.5225 25.4604 29.7656 24.9683 29.9297C24.4761 30.0938 23.9399 30.1758 23.3599 30.1758C22.8032 30.1758 22.2788 30.0967 21.7866 29.9385C21.3003 29.7803 20.8696 29.5518 20.4946 29.2529C20.1196 28.9482 19.8267 28.5762 19.6157 28.1367C19.4048 27.6914 19.2993 27.1846 19.2993 26.6162H20.9253C20.9253 27.0615 21.022 27.4512 21.2153 27.7852C21.4146 28.1191 21.6958 28.3799 22.0591 28.5674C22.4282 28.749 22.8618 28.8398 23.3599 28.8398C23.8579 28.8398 24.2856 28.7549 24.6431 28.585C25.0063 28.4092 25.2847 28.1455 25.478 27.7939C25.6772 27.4424 25.7769 27 25.7769 26.4668C25.7769 25.9336 25.6655 25.4971 25.4429 25.1572C25.2202 24.8115 24.9038 24.5566 24.4937 24.3926C24.0894 24.2227 23.6118 24.1377 23.061 24.1377H21.9009Z" fill="white"/>
</svg>
