<svg width="53" height="47" viewBox="0 0 53 47" fill="none" xmlns="http://www.w3.org/2000/svg">
<path d="M47.6055 23.5C47.6055 36.4787 37.0842 47 24.1055 47C11.1268 47 0.605469 36.4787 0.605469 23.5C0.605469 10.5213 11.1268 0 24.1055 0C37.0842 0 47.6055 10.5213 47.6055 23.5Z" fill="#7C7C8A"/>
<path d="M28.9912 28.6641V30H20.6152V28.8311L24.8076 24.1641C25.3232 23.5898 25.7217 23.1035 26.0029 22.7051C26.29 22.3008 26.4893 21.9404 26.6006 21.624C26.7178 21.3018 26.7764 20.9736 26.7764 20.6396C26.7764 20.2178 26.6885 19.8369 26.5127 19.4971C26.3428 19.1514 26.0908 18.876 25.7568 18.6709C25.4229 18.4658 25.0186 18.3633 24.5439 18.3633C23.9756 18.3633 23.501 18.4746 23.1201 18.6973C22.7451 18.9141 22.4639 19.2188 22.2764 19.6113C22.0889 20.0039 21.9951 20.4551 21.9951 20.9648H20.3691C20.3691 20.2441 20.5273 19.585 20.8438 18.9873C21.1602 18.3896 21.6289 17.915 22.25 17.5635C22.8711 17.2061 23.6357 17.0273 24.5439 17.0273C25.3525 17.0273 26.0439 17.1709 26.6182 17.458C27.1924 17.7393 27.6318 18.1377 27.9365 18.6533C28.2471 19.1631 28.4023 19.7607 28.4023 20.4463C28.4023 20.8213 28.3379 21.2021 28.209 21.5889C28.0859 21.9697 27.9131 22.3506 27.6904 22.7314C27.4736 23.1123 27.2188 23.4873 26.9258 23.8564C26.6387 24.2256 26.3311 24.5889 26.0029 24.9463L22.5752 28.6641H28.9912Z" fill="#C4C4CC"/>
</svg>
