<svg width="98" height="80" viewBox="0 0 98 80" fill="none" xmlns="http://www.w3.org/2000/svg">
<path d="M61.4542 16.6667C65.4425 17.3019 69.1079 18.8942 71.9813 21.2398C74.8546 23.5854 76.8052 26.5776 77.5833 29.8333M61.4542 3.33334C69.7404 4.0848 77.4673 7.11393 83.3663 11.9234C89.2653 16.7328 92.9857 23.0367 93.9167 29.8M89.8333 56.4V66.4C89.838 67.3283 89.605 68.2472 89.1494 69.0978C88.6938 69.9484 88.0257 70.712 87.1877 71.3396C86.3497 71.9671 85.3604 72.445 84.2831 72.7424C83.2058 73.0398 82.0643 73.1502 80.9317 73.0667C68.3666 71.9521 56.2969 68.4472 45.6925 62.8333C35.8265 57.7156 27.4618 50.8872 21.1925 42.8333C14.2916 34.1374 9.997 24.2367 8.65668 13.9333C8.55464 13.0116 8.68883 12.0825 9.05072 11.2054C9.41261 10.3283 9.99426 9.52231 10.7586 8.83875C11.523 8.15519 12.4534 7.60904 13.4905 7.23508C14.5276 6.86113 15.6487 6.66755 16.7825 6.66668H29.0325C31.0142 6.65076 32.9353 7.22361 34.4379 8.27845C35.9404 9.3333 36.9218 10.7982 37.1992 12.4C37.7162 15.6002 38.6751 18.7424 40.0575 21.7667C40.6069 22.9598 40.7258 24.2564 40.4001 25.5029C40.0745 26.7495 39.3179 27.8937 38.22 28.8L33.0342 33.0333C38.847 41.3785 47.3114 48.2882 57.5342 53.0333L62.72 48.8C63.8302 47.9038 65.2319 47.2862 66.7589 47.0203C68.2859 46.7545 69.8743 46.8515 71.3358 47.3C75.0405 48.4285 78.8897 49.2113 82.81 49.6333C84.7936 49.8618 86.6051 50.6774 87.9 51.925C89.195 53.1726 89.883 54.7653 89.8333 56.4Z" stroke="#FF3800" stroke-width="2" stroke-linecap="round" stroke-linejoin="round"/>
</svg>
